<svg version="1.1" xmlns="http://www.w3.org/2000/svg" xmlns:xlink="http://www.w3.org/1999/xlink" width="37" height="31" viewBox="0,0,256,214.47501"><g fill="#7c35d4" fill-rule="nonzero" stroke="none" stroke-width="1" stroke-linecap="butt" stroke-linejoin="miter" stroke-miterlimit="10" stroke-dasharray="" stroke-dashoffset="0" font-family="none" font-weight="none" font-size="none" text-anchor="none" style="mix-blend-mode: normal"><g transform="translate(2.10997,0.18362) scale(6.91892,6.91892)"><path d="M2.21101,30.4333h31.96799c0.5222,0 1.023,-0.2074 1.3922,-0.5766c0.3692,-0.3692 0.5767,-0.87 0.5767,-1.3922v-25.98371c0,-0.52217 -0.2075,-1.02294 -0.5767,-1.39217c-0.3692,-0.36923 -0.87,-0.57666 -1.3922,-0.57666h-31.96799c-0.52216,0 -1.02294,0.20743 -1.39217,0.57666c-0.36923,0.36923 -0.57665,0.87 -0.57665,1.39217v25.98371c0,0.5222 0.20743,1.023 0.57666,1.3922c0.36923,0.3692 0.87001,0.5766 1.39217,0.5766zM1.43904,2.48079c0,-0.20474 0.08134,-0.40109 0.22611,-0.54587c0.14477,-0.14477 0.34113,-0.2261 0.54586,-0.2261h31.96799c0.2048,0 0.4011,0.08133 0.5459,0.2261c0.1448,0.14478 0.2261,0.34113 0.2261,0.54587v2.81859h-33.51196zM1.43904,6.49624h33.51196v21.96826c0,0.2048 -0.0813,0.4011 -0.2261,0.5459c-0.1448,0.1448 -0.3411,0.2261 -0.5459,0.2261h-31.96799c-0.20473,0 -0.40109,-0.0813 -0.54586,-0.2261c-0.14477,-0.1448 -0.22611,-0.3411 -0.22611,-0.5459z"></path><path d="M14.6033,2.90552h-11.96853v1.19685h11.96853z"></path><path d="M32.5562,2.90552h-1.1968v1.19685h1.1968z"></path><path d="M28.3687,2.90527h-1.1968v1.19686h1.1968z"></path><path d="M9.81721,20.0386h0.79589c0.1925,-0.0011 0.381,0.0552 0.5414,0.1617c0.1605,0.1064 0.2855,0.2582 0.3594,0.436c0.0738,0.1778 0.093,0.3736 0.0551,0.5624c-0.0378,0.1887 -0.131,0.3619 -0.2677,0.4975l-0.5625,0.5626c-0.1128,0.1105 -0.1773,0.261 -0.1795,0.4189c0.0003,0.0791 0.0163,0.1575 0.0471,0.2304c0.0309,0.0729 0.0758,0.139 0.1324,0.1945l2.2202,2.2201c0.0554,0.0566 0.1215,0.1015 0.1944,0.1324c0.0729,0.0308 0.1513,0.0468 0.2304,0.0471c0.1579,-0.0022 0.3084,-0.0667 0.4189,-0.1795l0.5626,-0.5565c0.1329,-0.1406 0.3059,-0.2368 0.4955,-0.2753c0.1896,-0.0386 0.3864,-0.0177 0.5637,0.0598c0.1789,0.0715 0.3318,0.1956 0.4387,0.3559c0.1069,0.1602 0.1625,0.3492 0.1597,0.5418v0.7959c0,0.1587 0.0631,0.3109 0.1753,0.4231c0.1122,0.1123 0.2644,0.1753 0.4231,0.1753h3.1418c0.1587,0 0.3109,-0.063 0.4231,-0.1753c0.1123,-0.1122 0.1753,-0.2644 0.1753,-0.4231v-0.7959c-0.0037,-0.1928 0.0517,-0.3821 0.1586,-0.5426c0.107,-0.1604 0.2605,-0.2843 0.4398,-0.3551c0.1773,-0.0775 0.3741,-0.0984 0.5637,-0.0598c0.1896,0.0385 0.3627,0.1347 0.4955,0.2753l0.5626,0.5565c0.1121,0.1115 0.2638,0.174 0.4219,0.174c0.1581,0 0.3097,-0.0625 0.4219,-0.174l2.2201,-2.2201c0.0566,-0.0555 0.1015,-0.1216 0.1324,-0.1945c0.0308,-0.0729 0.0468,-0.1513 0.0471,-0.2304c-0.0022,-0.1579 -0.0667,-0.3084 -0.1795,-0.4189l-0.5565,-0.5626c-0.1406,-0.1328 -0.2368,-0.3059 -0.2753,-0.4955c-0.0386,-0.1896 -0.0177,-0.3864 0.0598,-0.5637c0.0708,-0.1794 0.1947,-0.3328 0.3551,-0.4398c0.1605,-0.1069 0.3498,-0.1623 0.5426,-0.1586h0.8019c0.1587,0 0.3109,-0.063 0.4231,-0.1753c0.1123,-0.1122 0.1753,-0.2644 0.1753,-0.4231v-3.1418c0,-0.1587 -0.063,-0.3109 -0.1753,-0.4231c-0.1122,-0.1123 -0.2644,-0.1753 -0.4231,-0.1753h-0.7959c-0.1925,-0.0006 -0.3805,-0.0581 -0.5403,-0.1654c-0.1599,-0.1072 -0.2844,-0.2593 -0.358,-0.4372c-0.0736,-0.1778 -0.0929,-0.3735 -0.0555,-0.5623c0.0374,-0.1888 0.1298,-0.3623 0.2656,-0.4987l0.5625,-0.5626c0.1128,-0.1104 0.1773,-0.261 0.1795,-0.4189c-0.0003,-0.0791 -0.0163,-0.1575 -0.0471,-0.2304c-0.0309,-0.0729 -0.0759,-0.139 -0.1324,-0.1944l-2.2202,-2.2202c-0.0554,-0.0565 -0.1215,-0.1015 -0.1944,-0.1323c-0.0729,-0.0309 -0.1513,-0.0469 -0.2304,-0.0472c-0.1579,0.0022 -0.3085,0.0667 -0.4189,0.1795l-0.5626,0.5565c-0.1329,0.1406 -0.3059,0.2368 -0.4955,0.2753c-0.1896,0.0386 -0.3864,0.0177 -0.5637,-0.0598c-0.1794,-0.0708 -0.3328,-0.1947 -0.4398,-0.3551c-0.1069,-0.1605 -0.1623,-0.3498 -0.1586,-0.5426v-0.79588c0,-0.15871 -0.0631,-0.31093 -0.1753,-0.42315c-0.1122,-0.11223 -0.2644,-0.17528 -0.4231,-0.17528h-3.1418c-0.1587,0 -0.3109,0.06305 -0.4231,0.17528c-0.1123,0.11222 -0.1753,0.26444 -0.1753,0.42315v0.79588c0.0028,0.1926 -0.0529,0.3816 -0.1597,0.5419c-0.1069,0.1602 -0.2599,0.2843 -0.4387,0.3558c-0.1773,0.0775 -0.3742,0.0984 -0.5637,0.0598c-0.1896,-0.0385 -0.3627,-0.1347 -0.4956,-0.2753l-0.5625,-0.5565c-0.1121,-0.1115 -0.2638,-0.174 -0.4219,-0.174c-0.1581,0 -0.3097,0.0625 -0.4219,0.174l-2.2201,2.2202c-0.0566,0.0554 -0.1016,0.1215 -0.1324,0.1944c-0.0308,0.0729 -0.0468,0.1513 -0.0472,0.2304c0.0023,0.1579 0.0668,0.3085 0.1796,0.4189l0.5565,0.5626c0.1406,0.1329 0.2367,0.3059 0.2753,0.4955c0.0386,0.1896 0.0177,0.3864 -0.0599,0.5637c-0.0714,0.1789 -0.1955,0.3319 -0.3558,0.4387c-0.1602,0.1069 -0.3492,0.1626 -0.5418,0.1597h-0.80189c-0.15872,0 -0.31093,0.0631 -0.42316,0.1753c-0.11222,0.1122 -0.17527,0.2644 -0.17527,0.4231v3.1418c-0.00079,0.0791 0.0141,0.1575 0.04382,0.2308c0.02972,0.0733 0.07368,0.14 0.12933,0.1962c0.05564,0.0562 0.12188,0.1008 0.19488,0.1313c0.073,0.0304 0.1513,0.0461 0.2304,0.0461zM10.4156,16.8969h0.1975c0.4285,-0.0016 0.8469,-0.1299 1.2026,-0.3687c0.3558,-0.2388 0.633,-0.5775 0.7967,-0.9734c0.1637,-0.396 0.2068,-0.8315 0.1236,-1.2518c-0.0831,-0.4203 -0.2887,-0.8066 -0.5909,-1.1104l-0.1376,-0.1137l1.3763,-1.3764l0.1377,0.1376c0.3037,0.3022 0.6901,0.5078 1.1104,0.5909c0.4203,0.0832 0.8558,0.0402 1.2518,-0.1236c0.3959,-0.1637 0.7346,-0.4409 0.9734,-0.7966c0.2388,-0.3558 0.367,-0.7742 0.3686,-1.2026v-0.2215h1.9449v0.1975c0,0.4285 0.127,0.8474 0.365,1.2037c0.2381,0.3563 0.5764,0.6341 0.9723,0.798c0.3959,0.164 0.8315,0.2069 1.2518,0.1233c0.4202,-0.0836 0.8063,-0.29 1.1092,-0.593l0.1377,-0.1376l1.3763,1.3763l-0.1376,0.1377c-0.3022,0.3038 -0.5078,0.6901 -0.5909,1.1104c-0.0832,0.4203 -0.0402,0.8558 0.1236,1.2518c0.1637,0.3959 0.4409,0.7346 0.7967,0.9734c0.3557,0.2388 0.7741,0.3671 1.2026,0.3687h0.1975v1.9448h-0.1975c-0.4285,0 -0.8474,0.127 -1.2037,0.365c-0.3563,0.2381 -0.6341,0.5764 -0.798,0.9723c-0.164,0.3959 -0.2069,0.8315 -0.1233,1.2518c0.0836,0.4202 0.29,0.8063 0.593,1.1092l0.1376,0.1377l-1.4003,1.3764l-0.1376,-0.1377c-0.303,-0.303 -0.689,-0.5094 -1.1093,-0.593c-0.4202,-0.0836 -0.8559,-0.0407 -1.2518,0.1233c-0.3958,0.164 -0.7342,0.4417 -0.9722,0.798c-0.2381,0.3563 -0.3651,0.7752 -0.365,1.2037v0.1975h-1.921v-0.1975c-0.0016,-0.4285 -0.1298,-0.8469 -0.3686,-1.2026c-0.2388,-0.3558 -0.5775,-0.6329 -0.9734,-0.7967c-0.396,-0.1637 -0.8315,-0.2067 -1.2518,-0.1236c-0.4203,0.0832 -0.8067,0.2887 -1.1104,0.5909l-0.1377,0.1377l-1.3763,-1.4004l0.1376,-0.1376c0.303,-0.303 0.5094,-0.689 0.593,-1.1093c0.0836,-0.4202 0.0407,-0.8559 -0.1233,-1.2517c-0.164,-0.3959 -0.4417,-0.7343 -0.798,-0.9723c-0.3563,-0.238 -0.7752,-0.3651 -1.2037,-0.365h-0.1975z"></path><path d="M18.1956,22.6535c0.9469,0 1.8725,-0.2808 2.6598,-0.8069c0.7873,-0.526 1.4009,-1.2737 1.7632,-2.1485c0.3624,-0.8748 0.4572,-1.8374 0.2725,-2.766c-0.1848,-0.9287 -0.6407,-1.7817 -1.3103,-2.4513c-0.6695,-0.6695 -1.5225,-1.1255 -2.4512,-1.3102c-0.9287,-0.1847 -1.8913,-0.0899 -2.766,0.2724c-0.8748,0.3624 -1.6225,0.976 -2.1486,1.7633c-0.526,0.7873 -0.8068,1.7129 -0.8068,2.6597c0,1.2697 0.5044,2.4874 1.4022,3.3853c0.8978,0.8978 2.1155,1.4022 3.3852,1.4022zM18.1956,14.2755c0.7102,0 1.4044,0.2106 1.9948,0.6051c0.5905,0.3945 1.0507,0.9553 1.3225,1.6114c0.2717,0.6561 0.3428,1.378 0.2043,2.0745c-0.1385,0.6965 -0.4805,1.3363 -0.9827,1.8385c-0.5021,0.5021 -1.1419,0.8441 -1.8384,0.9826c-0.6965,0.1386 -1.4184,0.0675 -2.0745,-0.2043c-0.6561,-0.2718 -1.2169,-0.732 -1.6114,-1.3225c-0.3946,-0.5904 -0.6051,-1.2846 -0.6051,-1.9948c0,-0.9522 0.3782,-1.8655 1.0516,-2.5389c0.6734,-0.6733 1.5866,-1.0516 2.5389,-1.0516z"></path></g></g></svg>