<svg version="1.1" xmlns="http://www.w3.org/2000/svg" xmlns:xlink="http://www.w3.org/1999/xlink" width="33" height="32" viewBox="0,0,256,248.2375"><g fill="#7c35d4" fill-rule="nonzero" stroke="none" stroke-width="1" stroke-linecap="butt" stroke-linejoin="miter" stroke-miterlimit="10" stroke-dasharray="" stroke-dashoffset="0" font-family="none" font-weight="none" font-size="none" text-anchor="none" style="mix-blend-mode: normal"><g transform="translate(-1.25675,-1.45959) scale(7.75758,7.75758)"><path d="M16.6599,0.81397c-1.2341,0 -2.2724,0.87556 -2.5268,2.03653h-8.82643v-1.23639c-0.00059,-0.14663 -0.05939,-0.28701 -0.16348,-0.39029c-0.10408,-0.10327 -0.24493,-0.16098 -0.39155,-0.16042h-3.57095c-0.14606,0.0003 -0.28607,0.05838 -0.38946,0.16157c-0.10338,0.10318 -0.16174,0.24308 -0.16233,0.38914v3.57959c0.00059,0.14606 0.05894,0.28596 0.16233,0.38914c0.10338,0.10318 0.2434,0.16126 0.38946,0.16156h3.57095c0.14662,0.00056 0.28747,-0.05714 0.39155,-0.16042c0.10409,-0.10327 0.16289,-0.24366 0.16348,-0.39028v-1.23747h6.19923c-3.42711,1.55387 -6.01866,4.61324 -6.94107,8.34477c-1.20953,0.216 -2.13587,1.283 -2.13587,2.5527c0,1.424 1.16413,2.5916 2.58723,2.5916c1.42311,0 2.58832,-1.1676 2.58832,-2.5916c0,-1.189 -0.81269,-2.1998 -1.90911,-2.5008c1.09199,-4.07101 4.372,-7.2276 8.5111,-8.13428c0.344,1.02732 1.3153,1.77414 2.4534,1.77414c1.138,0 2.1104,-0.74678 2.4544,-1.77414c4.1401,0.90578 7.4191,4.06228 8.5111,8.13428c-1.097,0.3006 -1.9091,1.3115 -1.9091,2.5008c0,1.424 1.1641,2.5916 2.5872,2.5916c1.4231,0 2.5883,-1.1676 2.5883,-2.5916c0,-1.2701 -0.9269,-2.3371 -2.137,-2.5527c-0.9224,-3.73169 -3.5137,-6.79096 -6.941,-8.34477h6.2003v1.23747c0.0006,0.14662 0.0594,0.28701 0.1635,0.39028c0.1041,0.10328 0.2449,0.16098 0.3915,0.16042h3.571c0.1466,0.00056 0.2874,-0.05714 0.3915,-0.16042c0.1041,-0.10327 0.1629,-0.24366 0.1635,-0.39028v-3.57959c-0.0006,-0.14663 -0.0594,-0.28702 -0.1635,-0.39029c-0.1041,-0.10328 -0.2449,-0.16098 -0.3915,-0.16042h-3.571c-0.1466,-0.00056 -0.2874,0.05714 -0.3915,0.16042c-0.1041,0.10327 -0.1629,0.24366 -0.1635,0.39029v1.23639h-8.8253c-0.2543,-1.16108 -1.2948,-2.03653 -2.5289,-2.03653zM16.6599,1.91646c0.8245,0 1.4815,0.65744 1.4815,1.48474c0,0.02334 -0.0001,0.04713 -0.0011,0.07019c-0.0007,0.00252 -0.0014,0.00504 -0.0021,0.00757c-0.0041,0.0268 -0.0062,0.05387 -0.0063,0.08098c-0.0777,0.7513 -0.7017,1.32709 -1.4728,1.32709c-0.763,0 -1.3813,-0.56379 -1.4697,-1.30333c0.0006,-0.0351 -0.0022,-0.07018 -0.0083,-0.10475c-0.0007,-0.00288 -0.0014,-0.00575 -0.0021,-0.00863c-0.001,-0.02271 -0.0021,-0.04612 -0.0021,-0.0691c0,-0.82731 0.6584,-1.48476 1.483,-1.48476zM1.7314,2.16913h2.46845v2.46954h-2.46845zM29.1198,2.16913h2.4696v2.46954h-2.4696zM16.6599,7.7237c-0.049,0.00077 -0.0976,0.00803 -0.1446,0.0216c-0.0077,0.00199 -0.0153,0.00415 -0.0228,0.00648c-0.0432,0.01395 -0.0846,0.03317 -0.1231,0.05722c-0.0111,0.00717 -0.0219,0.01474 -0.0324,0.02268c-0.0366,0.02609 -0.07,0.05655 -0.0992,0.09071l-0.0021,0.00108l-8.03602,9.72153c-0.06159,0.0737 -0.10293,0.1621 -0.11997,0.2566c-0.01704,0.0945 -0.00919,0.1917 0.02278,0.2823l3.45431,9.687c-0.6532,0.3122 -1.1079,0.9838 -1.1079,1.7525c0,1.0614 0.8666,1.9383 1.9264,1.9383h8.5705c1.0599,0 1.9264,-0.8769 1.9264,-1.9383c0,-0.7692 -0.455,-1.4416 -1.109,-1.7536l3.4554,-9.6859c0.0324,-0.0903 0.0408,-0.1874 0.0243,-0.2819c-0.0165,-0.0945 -0.0572,-0.183 -0.1183,-0.257l-8.0037,-9.67618c-0.0507,-0.07568 -0.1193,-0.13766 -0.1998,-0.18042c-0.0804,-0.04276 -0.1702,-0.06499 -0.2612,-0.0647zM16.1091,9.80883v6.52317c-1.1935,0.257 -2.0937,1.3304 -2.0937,2.6023c0,1.4615 1.188,2.665 2.6445,2.665c1.4563,0 2.6444,-1.2035 2.6444,-2.665c0,-1.2706 -0.8978,-2.3428 -2.0894,-2.6012v-6.5178l6.8568,8.2908l-3.4166,9.5791h-7.9906l-3.41543,-9.5834zM5.01619,13.3679c0.82458,0 1.48151,0.6585 1.48151,1.4858c0,0.8273 -0.65693,1.4848 -1.48151,1.4848c-0.82457,0 -1.4815,-0.6575 -1.4815,-1.4848c0,-0.8273 0.65693,-1.4858 1.4815,-1.4858zM28.2992,13.3679h0.0042c0.8245,0 1.4814,0.6585 1.4815,1.4858c0,0.8273 -0.657,1.4848 -1.4815,1.4848c-0.8246,0 -1.4816,-0.6575 -1.4816,-1.4848c0,-0.8258 0.6549,-1.4835 1.4774,-1.4858zM16.6599,17.3794c0.8533,0 1.5387,0.6857 1.5387,1.5549c0,0.8693 -0.6854,1.5593 -1.5387,1.5593c-0.8535,0 -1.5388,-0.69 -1.5388,-1.5593c0,-0.8692 0.6853,-1.5549 1.5388,-1.5549zM12.3751,28.7909h8.5705c0.461,0 0.8207,0.3593 0.8207,0.8325c0,0.4733 -0.3597,0.8326 -0.8207,0.8326h-8.5705c-0.461,0 -0.8206,-0.3593 -0.8206,-0.8326c0,-0.4732 0.3596,-0.8325 0.8206,-0.8325z"></path></g></g></svg>