<svg version="1.1" xmlns="http://www.w3.org/2000/svg" xmlns:xlink="http://www.w3.org/1999/xlink" width="12" height="12" viewBox="0,0,256,256"><g fill="#7c35d4" fill-rule="nonzero" stroke="none" stroke-width="1" stroke-linecap="butt" stroke-linejoin="miter" stroke-miterlimit="10" stroke-dasharray="" stroke-dashoffset="0" font-family="none" font-weight="none" font-size="none" text-anchor="none" style="mix-blend-mode: normal"><g transform="scale(21.33333,21.33333)"><path d="M7.5,7.875c0,0.20719 -0.16781,0.375 -0.375,0.375h-2.25c-0.20719,0 -0.375,-0.16781 -0.375,-0.375v-1.125h-4.5v3.375c0,0.6 0.525,1.125 1.125,1.125h9.75c0.6,0 1.125,-0.525 1.125,-1.125v-3.375h-4.5zM10.875,3h-1.875v-1.125c0,-0.6 -0.525,-1.125 -1.125,-1.125h-3.75c-0.6,0 -1.125,0.525 -1.125,1.125v1.125h-1.875c-0.6,0 -1.125,0.525 -1.125,1.125v1.875h12v-1.875c0,-0.6 -0.525,-1.125 -1.125,-1.125zM7.5,3h-3v-0.75h3z"></path></g></g></svg>