<svg width="20" height="20" viewBox="0 0 20 20" fill="none" xmlns="http://www.w3.org/2000/svg">
<g clip-path="url(#clip0_4_21)">
<path d="M6.68952 15.7655C6.68952 15.8436 6.59677 15.9061 6.47984 15.9061C6.34677 15.9178 6.25403 15.8553 6.25403 15.7655C6.25403 15.6874 6.34677 15.6249 6.46371 15.6249C6.58468 15.6132 6.68952 15.6757 6.68952 15.7655ZM5.43548 15.5897C5.40726 15.6678 5.4879 15.7577 5.60887 15.7811C5.71371 15.8202 5.83468 15.7811 5.85887 15.703C5.88306 15.6249 5.80645 15.535 5.68548 15.4999C5.58065 15.4725 5.46371 15.5116 5.43548 15.5897ZM7.21774 15.5233C7.10081 15.5507 7.02016 15.6249 7.03226 15.7147C7.04435 15.7928 7.14919 15.8436 7.27016 15.8163C7.3871 15.7889 7.46774 15.7147 7.45564 15.6366C7.44355 15.5624 7.33468 15.5116 7.21774 15.5233ZM9.87097 0.554565C4.27823 0.554565 0 4.66785 0 10.0858C0 14.4178 2.81452 18.1249 6.83468 19.4296C7.35081 19.5194 7.53226 19.2108 7.53226 18.9569C7.53226 18.7147 7.52016 17.3788 7.52016 16.5585C7.52016 16.5585 4.69758 17.1444 4.10484 15.3944C4.10484 15.3944 3.64516 14.2577 2.98387 13.9647C2.98387 13.9647 2.06048 13.3514 3.04839 13.3632C3.04839 13.3632 4.05242 13.4413 4.60484 14.371C5.4879 15.8788 6.96774 15.4452 7.54435 15.1874C7.6371 14.5624 7.89919 14.1288 8.18952 13.871C5.93548 13.6288 3.66129 13.3124 3.66129 9.55457C3.66129 8.48035 3.96774 7.94128 4.6129 7.25378C4.50806 6.99988 4.16532 5.953 4.71774 4.60144C5.56048 4.34753 7.5 5.65613 7.5 5.65613C8.30645 5.43738 9.17339 5.3241 10.0323 5.3241C10.8911 5.3241 11.7581 5.43738 12.5645 5.65613C12.5645 5.65613 14.504 4.34363 15.3468 4.60144C15.8992 5.95691 15.5565 6.99988 15.4516 7.25378C16.0968 7.94519 16.4919 8.48425 16.4919 9.55457C16.4919 13.3241 14.1169 13.6249 11.8629 13.871C12.2339 14.1796 12.5484 14.7655 12.5484 15.6835C12.5484 16.9999 12.5363 18.6288 12.5363 18.9491C12.5363 19.203 12.7218 19.5116 13.2339 19.4218C17.2661 18.1249 20 14.4178 20 10.0858C20 4.66785 15.4637 0.554565 9.87097 0.554565ZM3.91935 14.0272C3.86694 14.0663 3.87903 14.1561 3.94758 14.2303C4.0121 14.2928 4.10484 14.3202 4.15726 14.2694C4.20968 14.2303 4.19758 14.1405 4.12903 14.0663C4.06452 14.0038 3.97177 13.9764 3.91935 14.0272ZM3.48387 13.7108C3.45565 13.7616 3.49597 13.8241 3.57661 13.8632C3.64113 13.9022 3.72177 13.8905 3.75 13.8358C3.77823 13.785 3.7379 13.7225 3.65726 13.6835C3.57661 13.66 3.5121 13.6718 3.48387 13.7108ZM4.79032 15.1014C4.72581 15.1522 4.75 15.2694 4.84274 15.3436C4.93548 15.4335 5.05242 15.4452 5.10484 15.3827C5.15726 15.3319 5.13306 15.2147 5.05242 15.1405C4.96371 15.0507 4.84274 15.0389 4.79032 15.1014ZM4.33065 14.5272C4.26613 14.5663 4.26613 14.6678 4.33065 14.7577C4.39516 14.8475 4.50403 14.8866 4.55645 14.8475C4.62097 14.7968 4.62097 14.6952 4.55645 14.6053C4.5 14.5155 4.39516 14.4764 4.33065 14.5272Z" fill="white"/>
</g>
<defs>
<clipPath id="clip0_4_21">
<rect width="20" height="20" fill="white"/>
</clipPath>
</defs>
</svg>
