<svg width="20" height="20" viewBox="0 0 20 20" fill="none" xmlns="http://www.w3.org/2000/svg">
<g clip-path="url(#clip0_4_33)">
<path d="M10.0045 5.50781C7.16523 5.50781 4.87505 7.51172 4.87505 9.99609C4.87505 12.4805 7.16523 14.4844 10.0045 14.4844C12.8438 14.4844 15.134 12.4805 15.134 9.99609C15.134 7.51172 12.8438 5.50781 10.0045 5.50781ZM10.0045 12.9141C8.16969 12.9141 6.66969 11.6055 6.66969 9.99609C6.66969 8.38672 8.16523 7.07812 10.0045 7.07812C11.8438 7.07812 13.3393 8.38672 13.3393 9.99609C13.3393 11.6055 11.8393 12.9141 10.0045 12.9141ZM16.5402 5.32422C16.5402 5.90625 16.0045 6.37109 15.3438 6.37109C14.6786 6.37109 14.1474 5.90234 14.1474 5.32422C14.1474 4.74609 14.6831 4.27734 15.3438 4.27734C16.0045 4.27734 16.5402 4.74609 16.5402 5.32422ZM19.9376 6.38672C19.8617 4.98438 19.4956 3.74219 18.3215 2.71875C17.1518 1.69531 15.7322 1.375 14.1295 1.30469C12.4777 1.22266 7.52684 1.22266 5.87505 1.30469C4.27684 1.37109 2.8572 1.69141 1.68309 2.71484C0.508981 3.73828 0.147374 4.98047 0.0670166 6.38281C-0.0267334 7.82812 -0.0267334 12.1602 0.0670166 13.6055C0.142909 15.0078 0.508981 16.25 1.68309 17.2734C2.8572 18.2969 4.27237 18.6172 5.87505 18.6875C7.52684 18.7695 12.4777 18.7695 14.1295 18.6875C15.7322 18.6211 17.1518 18.3008 18.3215 17.2734C19.4911 16.25 19.8572 15.0078 19.9376 13.6055C20.0313 12.1602 20.0313 7.83203 19.9376 6.38672ZM17.8036 15.1562C17.4554 15.9219 16.7813 16.5117 15.9018 16.8203C14.5849 17.2773 11.4599 17.1719 10.0045 17.1719C8.54916 17.1719 5.41969 17.2734 4.10719 16.8203C3.23219 16.5156 2.55809 15.9258 2.20541 15.1562C1.68309 14.0039 1.80362 11.2695 1.80362 9.99609C1.80362 8.72266 1.68755 5.98438 2.20541 4.83594C2.55362 4.07031 3.22773 3.48047 4.10719 3.17187C5.42416 2.71484 8.54916 2.82031 10.0045 2.82031C11.4599 2.82031 14.5893 2.71875 15.9018 3.17187C16.7768 3.47656 17.4509 4.06641 17.8036 4.83594C18.3259 5.98828 18.2054 8.72266 18.2054 9.99609C18.2054 11.2695 18.3259 14.0078 17.8036 15.1562Z" fill="white"/>
</g>
<defs>
<clipPath id="clip0_4_33">
<rect width="20" height="20" fill="white"/>
</clipPath>
</defs>
</svg>
