<svg width="20" height="20" viewBox="0 0 20 20" fill="none" xmlns="http://www.w3.org/2000/svg">
<g clip-path="url(#clip0_4_17)">
<path d="M10 0.3125C4.47581 0.3125 0 4.64844 0 10C0 15.3516 4.47581 19.6875 10 19.6875C15.5242 19.6875 20 15.3516 20 10C20 4.64844 15.5242 0.3125 10 0.3125ZM14.6371 6.90234C14.4879 8.43359 13.8347 12.1523 13.504 13.8672C13.3629 14.5938 13.0887 14.8359 12.8226 14.8594C12.2419 14.9102 11.8024 14.4883 11.2379 14.1289C10.3589 13.5703 9.85887 13.2227 9.00806 12.6758C8.02016 12.0469 8.66129 11.6992 9.22177 11.1328C9.37097 10.9844 11.9274 8.73047 11.9758 8.52734C11.9839 8.5 11.9879 8.40625 11.9274 8.35547C11.8669 8.30469 11.7823 8.32422 11.7218 8.33594C11.6331 8.35417 10.2272 9.25391 7.50403 11.0352C7.10618 11.3008 6.74462 11.4297 6.41935 11.4219C6.06048 11.4141 5.375 11.2266 4.8629 11.0664C4.2379 10.8711 3.7379 10.7656 3.78226 10.4297C3.80376 10.2552 4.05242 10.0768 4.52823 9.89453C7.4422 8.66536 9.38575 7.85417 10.3589 7.46094C13.1371 6.34375 13.7137 6.14844 14.0887 6.14062C14.1734 6.14062 14.3548 6.16016 14.4758 6.25391C14.5548 6.32115 14.6051 6.41444 14.6169 6.51562C14.6387 6.64338 14.6455 6.77311 14.6371 6.90234Z" fill="white"/>
</g>
<defs>
<clipPath id="clip0_4_17">
<rect width="20" height="20" fill="white"/>
</clipPath>
</defs>
</svg>
