<svg version="1.1" xmlns="http://www.w3.org/2000/svg" xmlns:xlink="http://www.w3.org/1999/xlink" width="14" height="14" viewBox="0,0,256,256"><g fill="none" fill-rule="nonzero" stroke="#7c35d4" stroke-width="0.875" stroke-linecap="round" stroke-linejoin="round" stroke-miterlimit="10" stroke-dasharray="" stroke-dashoffset="0" font-family="none" font-weight="none" font-size="none" text-anchor="none" style="mix-blend-mode: normal"><g transform="translate(0,-0.00447) scale(18.28571,18.28571)"><path d="M2.1875,5.79688v6.45312c0,0.116 0.04609,0.2273 0.12814,0.3094c0.08205,0.082 0.19333,0.1281 0.30936,0.1281h2.625v-3.71875c0,-0.17405 0.06914,-0.34097 0.19221,-0.46404c0.12307,-0.12307 0.28999,-0.19221 0.46404,-0.19221h2.1875c0.17405,0 0.34097,0.06914 0.46404,0.19221c0.12307,0.12307 0.19221,0.28999 0.19221,0.46404v3.71875h2.625c0.116,0 0.2273,-0.0461 0.3094,-0.1281c0.082,-0.0821 0.1281,-0.1934 0.1281,-0.3094v-6.45312"></path><path d="M13.125,7.00001l-5.82723,-5.57812c-0.13671,-0.14438 -0.45636,-0.14602 -0.59554,0l-5.82723,5.57812M10.9375,4.89454v-3.14453h-1.3125v1.88672"></path></g></g></svg>