<svg version="1.1" xmlns="http://www.w3.org/2000/svg" xmlns:xlink="http://www.w3.org/1999/xlink" width="12" height="12" viewBox="0,0,256,256"><g fill="#7c35d4" fill-rule="nonzero" stroke="none" stroke-width="1" stroke-linecap="butt" stroke-linejoin="miter" stroke-miterlimit="10" stroke-dasharray="" stroke-dashoffset="0" font-family="none" font-weight="none" font-size="none" text-anchor="none" style="mix-blend-mode: normal"><g transform="translate(0.00012,0) scale(21.33333,21.33333)"><path d="M11.9311,6.75194l-1.5088,2.58656c-0.1174,0.20129 -0.2855,0.3683 -0.48762,0.48436c-0.20208,0.11607 -0.43104,0.17714 -0.66407,0.17714h-8.33259c-0.3859,0 -0.62633,-0.4186 -0.4319,-0.75194l1.50884,-2.58656c0.11742,-0.20129 0.28555,-0.36829 0.48762,-0.48436c0.20208,-0.11607 0.43105,-0.17714 0.66409,-0.17714h8.33263c0.3858,0 0.6263,0.4186 0.4318,0.75194zM3.16667,5.33333h6.83333v-1c0,-0.55229 -0.44771,-1 -1,-1h-3.33333l-1.33334,-1.33333h-3.33333c-0.55229,0 -1,0.44771 -1,1v5.79262l1.4391,-2.46704c0.35703,-0.61204 1.019,-0.99225 1.72757,-0.99225z"></path></g></g></svg>