<svg width="17" height="22" viewBox="0 0 17 22" fill="none" xmlns="http://www.w3.org/2000/svg">
<path d="M0.243652 20.7764C0.243652 20.5692 0.325962 20.3705 0.472475 20.224C0.618988 20.0775 0.817702 19.9952 1.0249 19.9952H16.1291C16.3363 19.9952 16.535 20.0775 16.6815 20.224C16.828 20.3705 16.9103 20.5692 16.9103 20.7764C16.9103 20.9836 16.828 21.1824 16.6815 21.3289C16.535 21.4754 16.3363 21.5577 16.1291 21.5577H1.0249C0.817702 21.5577 0.618988 21.4754 0.472475 21.3289C0.325962 21.1824 0.243652 20.9836 0.243652 20.7764ZM1.51449 8.5681C1.44192 8.49564 1.38435 8.40958 1.34507 8.31485C1.30579 8.22012 1.28557 8.11857 1.28557 8.01602C1.28557 7.91347 1.30579 7.81192 1.34507 7.71719C1.38435 7.62246 1.44192 7.5364 1.51449 7.46394L8.0249 0.95352C8.09737 0.880953 8.18342 0.823384 8.27816 0.784106C8.37289 0.744827 8.47443 0.724609 8.57699 0.724609C8.67954 0.724609 8.78108 0.744827 8.87582 0.784106C8.97055 0.823384 9.0566 0.880953 9.12907 0.95352L15.6395 7.46394C15.712 7.53644 15.7695 7.62251 15.8087 7.71723C15.848 7.81196 15.8682 7.91349 15.8682 8.01602C15.8682 8.11855 15.848 8.22008 15.8087 8.31481C15.7695 8.40953 15.712 8.4956 15.6395 8.5681C15.567 8.6406 15.4809 8.69811 15.3862 8.73735C15.2915 8.77659 15.1899 8.79678 15.0874 8.79678C14.9849 8.79678 14.8833 8.77659 14.7886 8.73735C14.6939 8.69811 14.6078 8.6406 14.5353 8.5681L9.35824 3.39206V16.0889C9.35824 16.2961 9.27592 16.4949 9.12941 16.6414C8.9829 16.7879 8.78419 16.8702 8.57699 16.8702C8.36978 16.8702 8.17107 16.7879 8.02456 16.6414C7.87805 16.4949 7.79574 16.2961 7.79574 16.0889V3.39206L2.61865 8.5681C2.54619 8.64067 2.46013 8.69824 2.3654 8.73752C2.27067 8.7768 2.16912 8.79701 2.06657 8.79701C1.96402 8.79701 1.86247 8.7768 1.76774 8.73752C1.67301 8.69824 1.58695 8.64067 1.51449 8.5681Z" fill="white"/>
</svg>
