<svg version="1.1" xmlns="http://www.w3.org/2000/svg" xmlns:xlink="http://www.w3.org/1999/xlink" width="14" height="14" viewBox="0,0,256,256"><g fill="#7c35d4" fill-rule="nonzero" stroke="none" stroke-width="1" stroke-linecap="butt" stroke-linejoin="miter" stroke-miterlimit="10" stroke-dasharray="" stroke-dashoffset="0" font-family="none" font-weight="none" font-size="none" text-anchor="none" style="mix-blend-mode: normal"><g transform="translate(-0.00009,0.00118) scale(18.28571,18.28571)"><path d="M10.1722,12.7965h-6.34436c-0.38677,0 -0.75771,-0.1536 -1.0312,-0.4271c-0.27349,-0.2735 -0.42713,-0.6444 -0.42713,-1.0312v-0.4824c0,-2.31529 2.07725,-4.20004 4.6305,-4.20004c2.55325,0 4.63049,1.88359 4.63049,4.20004v0.4824c0,0.1915 -0.0377,0.3811 -0.111,0.5581c-0.0733,0.1769 -0.1807,0.3377 -0.3161,0.4731c-0.1354,0.1354 -0.2962,0.2428 -0.4731,0.3161c-0.177,0.0733 -0.3666,0.111 -0.5581,0.111zM7.00001,7.24026c-2.23184,0 -4.04717,1.62167 -4.04717,3.61664v0.4824c0,0.2321 0.09219,0.4547 0.25628,0.6188c0.1641,0.1641 0.38666,0.2562 0.61872,0.2562h6.34436c0.232,0 0.4546,-0.0921 0.6187,-0.2562c0.1641,-0.1641 0.2563,-0.3867 0.2563,-0.6188v-0.4835c0,-1.99387 -1.81536,-3.61554 -4.04719,-3.61554z"></path><path d="M7.00003,5.78137c-0.45274,0.00012 -0.89536,-0.13403 -1.27186,-0.38548c-0.3765,-0.25145 -0.66997,-0.6089 -0.84331,-1.02715c-0.17334,-0.41825 -0.21875,-0.87851 -0.1305,-1.32257c0.08826,-0.44406 0.30622,-0.85198 0.62632,-1.17216c0.3201,-0.32018 0.72796,-0.53825 1.17199,-0.62661c0.44404,-0.08837 0.90431,-0.04308 1.32261,0.13015c0.41829,0.17324 0.77582,0.46662 1.02736,0.84306c0.25155,0.37644 0.38581,0.81901 0.38581,1.27176c-0.00046,0.60684 -0.24169,1.1887 -0.67074,1.61785c-0.42904,0.42915 -1.01084,0.67053 -1.61768,0.67115zM7.00003,1.78729c-0.3374,-0.00012 -0.66725,0.09983 -0.94783,0.28721c-0.28059,0.18738 -0.4993,0.45376 -0.62847,0.76545c-0.12917,0.3117 -0.163,0.6547 -0.0972,0.98562c0.06579,0.33092 0.22826,0.63489 0.46683,0.87347c0.23858,0.23858 0.54255,0.40104 0.87347,0.46683c0.33093,0.0658 0.67393,0.03197 0.98562,-0.0972c0.31169,-0.12917 0.57808,-0.34788 0.76545,-0.62846c0.18738,-0.28059 0.28733,-0.61044 0.28722,-0.94784c-0.00047,-0.45207 -0.18026,-0.8855 -0.49992,-1.20516c-0.31967,-0.31967 -0.75309,-0.49946 -1.20517,-0.49992z"></path></g></g></svg>