<svg version="1.1" xmlns="http://www.w3.org/2000/svg" xmlns:xlink="http://www.w3.org/1999/xlink" width="17" height="17" viewBox="0,0,256,256"><g fill="#ffffff" fill-rule="nonzero" stroke="none" stroke-width="1" stroke-linecap="butt" stroke-linejoin="miter" stroke-miterlimit="10" stroke-dasharray="" stroke-dashoffset="0" font-family="none" font-weight="none" font-size="none" text-anchor="none" style="mix-blend-mode: normal"><g transform="translate(-1.94522,3.42283) scale(15.05882,15.05882)"><path d="M11.1292,4.27271c0,-0.66305 -0.2634,-1.29893 -0.7323,-1.76777c-0.46882,-0.46884 -1.10471,-0.73223 -1.76775,-0.73223c-0.66304,0 -1.29893,0.26339 -1.76777,0.73223c-0.46884,0.46884 -0.73223,1.10472 -0.73223,1.76777c0,0.66304 0.26339,1.29892 0.73223,1.76776c0.46884,0.46884 1.10473,0.73224 1.76777,0.73224c0.66304,0 1.29893,-0.2634 1.76775,-0.73224c0.4689,-0.46884 0.7323,-1.10472 0.7323,-1.76776zM4.62915,4.27271c0,-1.06087 0.42143,-2.07829 1.17157,-2.82843c0.75015,-0.75015 1.76756,-1.17157 2.82843,-1.17157c1.06087,0 2.07825,0.42143 2.82845,1.17158c0.7501,0.75014 1.1716,1.76756 1.1716,2.82843c0,1.06086 -0.4215,2.07828 -1.1716,2.82842c-0.7502,0.75015 -1.76758,1.17158 -2.82845,1.17158c-1.06087,0 -2.07828,-0.42143 -2.82843,-1.17158c-0.75014,-0.75014 -1.17157,-1.76756 -1.17157,-2.82842zM3.16978,14.7727h10.91872c-0.2781,-1.9781 -1.9781,-3.5 -4.0312,-3.5h-2.85627c-2.05313,0 -3.75313,1.5219 -4.03125,3.5zM1.62915,15.3446c0,-3.0781 2.49375,-5.57189 5.57188,-5.57189h2.85627c3.0781,0 5.5719,2.49379 5.5719,5.57189c0,0.5125 -0.4157,0.9281 -0.9282,0.9281h-12.14372c-0.5125,0 -0.92813,-0.4156 -0.92813,-0.9281z"></path></g></g></svg>