<svg version="1.1" xmlns="http://www.w3.org/2000/svg" xmlns:xlink="http://www.w3.org/1999/xlink" width="17" height="17" viewBox="0,0,256,256"><g fill="none" fill-rule="nonzero" stroke="#ffffff" stroke-width="1" stroke-linecap="none" stroke-linejoin="round" stroke-miterlimit="10" stroke-dasharray="" stroke-dashoffset="0" font-family="none" font-weight="none" font-size="none" text-anchor="none" style="mix-blend-mode: normal"><g transform="translate(-1.94522,3.42453) scale(15.05882,15.05882)"><path d="M14.1292,4.27258h-11.00005c-0.82843,0 -1.5,0.67158 -1.5,1.5v7.00002c0,0.8284 0.67157,1.5 1.5,1.5h11.00005c0.8284,0 1.5,-0.6716 1.5,-1.5v-7.00002c0,-0.82842 -0.6716,-1.5 -1.5,-1.5z" stroke-linecap="butt"></path><path d="M5.12915,4.27258v-1c0,-0.26521 0.10536,-0.51957 0.29289,-0.7071c0.18754,-0.18754 0.44189,-0.2929 0.70711,-0.2929h5.00005c0.2652,0 0.5195,0.10536 0.7071,0.2929c0.1875,0.18753 0.2929,0.44189 0.2929,0.7071v1M15.6292,7.77258h-14.00005M10.6292,7.77258v0.75c0,0.06631 -0.0264,0.1299 -0.0733,0.17678c-0.0469,0.04688 -0.1104,0.07322 -0.1767,0.07322h-3.50005c-0.0663,0 -0.12989,-0.02634 -0.17678,-0.07322c-0.04688,-0.04688 -0.07322,-0.11047 -0.07322,-0.17678v-0.75" stroke-linecap="round"></path></g></g></svg>