<svg version="1.1" xmlns="http://www.w3.org/2000/svg" xmlns:xlink="http://www.w3.org/1999/xlink" width="17" height="17" viewBox="0,0,256,256"><g fill="#ffffff" fill-rule="nonzero" stroke="none" stroke-width="1" stroke-linecap="butt" stroke-linejoin="miter" stroke-miterlimit="10" stroke-dasharray="" stroke-dashoffset="0" font-family="none" font-weight="none" font-size="none" text-anchor="none" style="mix-blend-mode: normal"><g transform="translate(0.56395,3.42453) scale(15.05882,15.05882)"><path d="M3.2959,7.27258c-0.55333,0 -1,0.44667 -1,1c0,0.55334 0.44667,1 1,1c0.55333,0 1,-0.44666 1,-1c0,-0.55333 -0.44667,-1 -1,-1zM3.2959,3.27258c-0.55333,0 -1,0.44667 -1,1c0,0.55334 0.44667,1 1,1c0.55333,0 1,-0.44666 1,-1c0,-0.55333 -0.44667,-1 -1,-1zM3.2959,11.2726c-0.55333,0 -1,0.4533 -1,1c0,0.5467 0.45333,1 1,1c0.54667,0 1,-0.4533 1,-1c0,-0.5467 -0.44667,-1 -1,-1zM5.2959,12.9392h9.3333v-1.3333h-9.3333zM5.2959,8.93925h9.3333v-1.33333h-9.3333zM5.2959,3.60592v1.33333h9.3333v-1.33333z"></path></g></g></svg>