<svg version="1.1" xmlns="http://www.w3.org/2000/svg" xmlns:xlink="http://www.w3.org/1999/xlink" width="17" height="17" viewBox="0,0,256,256"><g fill="#ffffff" fill-rule="nonzero" stroke="none" stroke-width="1" stroke-linecap="butt" stroke-linejoin="miter" stroke-miterlimit="10" stroke-dasharray="" stroke-dashoffset="0" font-family="none" font-weight="none" font-size="none" text-anchor="none" style="mix-blend-mode: normal"><g transform="translate(-1.94764,3.42507) scale(15.05882,15.05882)"><path d="M16.1112,11.1523v-4.03348l0.2515,-0.13275c0.1635,-0.085 0.2665,-0.25352 0.2685,-0.438c0.002,-0.18402 -0.0978,-0.35452 -0.2593,-0.44325l-7.52245,-4.025c-0.15049,-0.0825 -0.3325,-0.08202 -0.484,0.00148l-7.48125,4.03c-0.15927,0.08877 -0.25775,0.25726 -0.25675,0.44002c0.001,0.18277 0.1015,0.35 0.26277,0.43703l3.28725,1.74974c-0.04125,0.07275 -0.06675,0.15575 -0.06675,0.24525v4.23096c0,0.1425 0.06102,0.2788 0.1675,0.3735c0.10852,0.0963 1.14752,0.939 4.32427,0.939c3.16552,0 4.23252,-0.7965 4.34372,-0.8872c0.1163,-0.0948 0.1835,-0.2368 0.1835,-0.3873v-4.33948c0,-0.07025 -0.0147,-0.137 -0.0407,-0.1975l2.0222,-1.06826v3.50804c-0.2965,0.1735 -0.4975,0.4917 -0.4975,0.8597c0,0.5523 0.4478,1 1,1c0.5523,0 1,-0.4477 1,-1c0,-0.3702 -0.2037,-0.6897 -0.5025,-0.8625zM12.1297,12.9658c-0.393,0.189 -1.433,0.561 -3.52725,0.561c-2.1075,0 -3.124,-0.396 -3.49175,-0.5865v-3.70523l3.247,1.72853c0.07287,0.0394 0.15441,0.06 0.23725,0.06c0.08068,0 0.16015,-0.0196 0.2315,-0.0573l3.30325,-1.74473zM8.59895,9.9571l-6.43125,-3.41501l6.4425,-3.45275l6.4625,3.44275z"></path></g></g></svg>