<svg width="17" height="17" viewBox="0 0 17 17" fill="none" xmlns="http://www.w3.org/2000/svg">
<path d="M3.12915 6.89764V14.2726C3.12915 14.4053 3.18183 14.5324 3.2756 14.6262C3.36937 14.72 3.49654 14.7726 3.62915 14.7726H6.62915V10.5226C6.62915 10.3237 6.70817 10.133 6.84882 9.99231C6.98947 9.85166 7.18024 9.77264 7.37915 9.77264H9.87915C10.0781 9.77264 10.2688 9.85166 10.4095 9.99231C10.5501 10.133 10.6292 10.3237 10.6292 10.5226V14.7726H13.6292C13.7618 14.7726 13.8889 14.72 13.9827 14.6262C14.0765 14.5324 14.1292 14.4053 14.1292 14.2726V6.89764" stroke="black" stroke-linecap="round" stroke-linejoin="round"/>
<path d="M15.6292 8.27265L8.96946 1.89765C8.81321 1.73265 8.4479 1.73077 8.28884 1.89765L1.62915 8.27265M13.1292 5.8664V2.27265H11.6292V4.4289" stroke="black" stroke-linecap="round" stroke-linejoin="round"/>
</svg>
