<svg width="17" height="17" viewBox="0 0 17 17" fill="none" xmlns="http://www.w3.org/2000/svg">
<path d="M11.1292 4.27271C11.1292 3.60966 10.8658 2.97378 10.3969 2.50494C9.92808 2.0361 9.29219 1.77271 8.62915 1.77271C7.96611 1.77271 7.33022 2.0361 6.86138 2.50494C6.39254 2.97378 6.12915 3.60966 6.12915 4.27271C6.12915 4.93575 6.39254 5.57163 6.86138 6.04047C7.33022 6.50931 7.96611 6.77271 8.62915 6.77271C9.29219 6.77271 9.92808 6.50931 10.3969 6.04047C10.8658 5.57163 11.1292 4.93575 11.1292 4.27271ZM4.62915 4.27271C4.62915 3.21184 5.05058 2.19442 5.80072 1.44428C6.55087 0.694133 7.56828 0.272705 8.62915 0.272705C9.69002 0.272705 10.7074 0.694133 11.4576 1.44428C12.2077 2.19442 12.6292 3.21184 12.6292 4.27271C12.6292 5.33357 12.2077 6.35099 11.4576 7.10113C10.7074 7.85128 9.69002 8.27271 8.62915 8.27271C7.56828 8.27271 6.55087 7.85128 5.80072 7.10113C5.05058 6.35099 4.62915 5.33357 4.62915 4.27271ZM3.16978 14.7727H14.0885C13.8104 12.7946 12.1104 11.2727 10.0573 11.2727H7.20103C5.1479 11.2727 3.4479 12.7946 3.16978 14.7727ZM1.62915 15.3446C1.62915 12.2665 4.1229 9.77271 7.20103 9.77271H10.0573C13.1354 9.77271 15.6292 12.2665 15.6292 15.3446C15.6292 15.8571 15.2135 16.2727 14.701 16.2727H2.55728C2.04478 16.2727 1.62915 15.8571 1.62915 15.3446Z" fill="black"/>
</svg>
