<svg width="17" height="17" viewBox="0 0 17 17" fill="none" xmlns="http://www.w3.org/2000/svg">
<path d="M14.1292 4.27258H3.12915C2.30072 4.27258 1.62915 4.94416 1.62915 5.77258V12.7726C1.62915 13.601 2.30072 14.2726 3.12915 14.2726H14.1292C14.9576 14.2726 15.6292 13.601 15.6292 12.7726V5.77258C15.6292 4.94416 14.9576 4.27258 14.1292 4.27258Z" stroke="black" stroke-linejoin="round"/>
<path d="M5.12915 4.27258V3.27258C5.12915 3.00737 5.23451 2.75301 5.42204 2.56548C5.60958 2.37794 5.86393 2.27258 6.12915 2.27258H11.1292C11.3944 2.27258 11.6487 2.37794 11.8363 2.56548C12.0238 2.75301 12.1292 3.00737 12.1292 3.27258V4.27258M15.6292 7.77258H1.62915M10.6292 7.77258V8.52258C10.6292 8.58889 10.6028 8.65248 10.5559 8.69936C10.509 8.74624 10.4455 8.77258 10.3792 8.77258H6.87915C6.81285 8.77258 6.74926 8.74624 6.70237 8.69936C6.65549 8.65248 6.62915 8.58889 6.62915 8.52258V7.77258" stroke="black" stroke-linecap="round" stroke-linejoin="round"/>
</svg>
