<svg width="17" height="17" viewBox="0 0 17 17" fill="none" xmlns="http://www.w3.org/2000/svg">
<path d="M3.2959 7.27258C2.74257 7.27258 2.2959 7.71925 2.2959 8.27258C2.2959 8.82592 2.74257 9.27258 3.2959 9.27258C3.84923 9.27258 4.2959 8.82592 4.2959 8.27258C4.2959 7.71925 3.84923 7.27258 3.2959 7.27258ZM3.2959 3.27258C2.74257 3.27258 2.2959 3.71925 2.2959 4.27258C2.2959 4.82592 2.74257 5.27258 3.2959 5.27258C3.84923 5.27258 4.2959 4.82592 4.2959 4.27258C4.2959 3.71925 3.84923 3.27258 3.2959 3.27258ZM3.2959 11.2726C2.74257 11.2726 2.2959 11.7259 2.2959 12.2726C2.2959 12.8193 2.74923 13.2726 3.2959 13.2726C3.84257 13.2726 4.2959 12.8193 4.2959 12.2726C4.2959 11.7259 3.84923 11.2726 3.2959 11.2726ZM5.2959 12.9392H14.6292V11.6059H5.2959V12.9392ZM5.2959 8.93925H14.6292V7.60592H5.2959V8.93925ZM5.2959 3.60592V4.93925H14.6292V3.60592H5.2959Z" fill="black"/>
</svg>
