<svg width="17" height="17" viewBox="0 0 17 17" fill="none" xmlns="http://www.w3.org/2000/svg">
<path d="M16.1112 11.1523V7.11882L16.3627 6.98607C16.5262 6.90107 16.6292 6.73255 16.6312 6.54807C16.6332 6.36405 16.5334 6.19355 16.3719 6.10482L8.84945 2.07982C8.69896 1.99732 8.51695 1.9978 8.36545 2.0813L0.884199 6.1113C0.724933 6.20007 0.626449 6.36856 0.627449 6.55132C0.628449 6.73409 0.728949 6.90132 0.890215 6.98835L4.17746 8.73809C4.13621 8.81084 4.11071 8.89384 4.11071 8.98334V13.2143C4.11071 13.3568 4.17173 13.4931 4.27821 13.5878C4.38673 13.6841 5.42573 14.5268 8.60248 14.5268C11.768 14.5268 12.835 13.7303 12.9462 13.6396C13.0625 13.5448 13.1297 13.4028 13.1297 13.2523V8.91282C13.1297 8.84257 13.115 8.77582 13.089 8.71532L15.1112 7.64706V11.1551C14.8147 11.3286 14.6137 11.6468 14.6137 12.0148C14.6137 12.5671 15.0615 13.0148 15.6137 13.0148C16.166 13.0148 16.6137 12.5671 16.6137 12.0148C16.6137 11.6446 16.41 11.3251 16.1112 11.1523ZM12.1297 12.9658C11.7367 13.1548 10.6967 13.5268 8.60245 13.5268C6.49495 13.5268 5.47845 13.1308 5.1107 12.9403V9.23507L8.3577 10.9636C8.43057 11.003 8.51211 11.0236 8.59495 11.0236C8.67563 11.0236 8.7551 11.004 8.82645 10.9663L12.1297 9.22157V12.9658ZM8.59895 9.9571L2.1677 6.54209L8.6102 3.08934L15.0727 6.53209L8.59895 9.9571Z" fill="black"/>
</svg>
