<svg width="17" height="17" viewBox="0 0 17 17" fill="none" xmlns="http://www.w3.org/2000/svg">
<path d="M11.6292 8.02258V8.89758C11.6292 9.10383 11.4604 9.27258 11.2542 9.27258H6.00415C5.7979 9.27258 5.62915 9.10383 5.62915 8.89758V8.02258C5.62915 7.81633 5.7979 7.64758 6.00415 7.64758H11.2542C11.4604 7.64758 11.6292 7.81633 11.6292 8.02258ZM11.2542 10.2726H6.00415C5.7979 10.2726 5.62915 10.4413 5.62915 10.6476V11.5226C5.62915 11.7288 5.7979 11.8976 6.00415 11.8976H11.2542C11.4604 11.8976 11.6292 11.7288 11.6292 11.5226V10.6476C11.6292 10.4413 11.4604 10.2726 11.2542 10.2726ZM14.6292 4.39446V14.7726C14.6292 15.6007 13.9573 16.2726 13.1292 16.2726H4.12915C3.30103 16.2726 2.62915 15.6007 2.62915 14.7726V1.77258C2.62915 0.944458 3.30103 0.272583 4.12915 0.272583H10.5073C10.9042 0.272583 11.2854 0.431958 11.5667 0.713208L14.1885 3.33508C14.4698 3.61321 14.6292 3.99758 14.6292 4.39446ZM10.6292 1.89446V4.27258H13.0073L10.6292 1.89446ZM13.1292 14.7726V5.77258H9.87915C9.46353 5.77258 9.12915 5.43821 9.12915 5.02258V1.77258H4.12915V14.7726H13.1292Z" fill="black"/>
</svg>
